{"asset":{"version":"2.0","generator":"Unity 6000.3.9f1 glTFast 6.19.0"},"nodes":[{"name":"Directional Light","children":[58],"translation":[-0.39648,1.75707,0.30464],"rotation":[0.408217877,0.234569684,-0.109381631,0.8754261]},{"name":"chair_C","mesh":0,"translation":[0.73,-1.19,-1.18],"rotation":[2.16229026E-08,-0.145571455,3.18156634E-09,0.9893478]},{"name":"rug_rectangle_stripes_A","mesh":1,"translation":[-0.1764802,-1.20403016,0.494640052],"rotation":[2.10079243E-08,-0.2758173,6.0281824E-09,0.961210132]},{"name":"book_single","mesh":2,"translation":[-1.69,-0.051,1.829],"rotation":[0.676178753,0.6400281,0.265690148,0.2501102]},{"name":"table_small","mesh":3,"translation":[-1.71648014,-1.19403017,1.85463977],"rotation":[2.17659668E-08,0.09052405,-1.97846584E-09,0.9958943]},{"name":"ParedeCircular1","mesh":4,"translation":[4.4001,-0.18921,-3.89391]},{"name":"ParedeCircular2","mesh":5,"translation":[4.4001,0.81079,-3.89391]},{"name":"ParedeCircular3","mesh":6,"translation":[4.4001,1.81079006,-3.89391]},{"name":"Nivel1","mesh":7,"translation":[4.4001,0.81079,-3.89391]},{"name":"Nivel2","mesh":8,"translation":[4.4001,1.81079006,-3.89391]},{"name":"Nivel3","mesh":9,"translation":[4.4001,2.75,-3.89391]},{"name":"Chão","mesh":10,"translation":[4.4001,-0.18921,-3.89391]},{"name":"Arch1","mesh":11,"translation":[4.3047595,2.17684,-4.02321148]},{"name":"Arch2","mesh":12,"translation":[4.304759,2.17684,-4.023212],"rotation":[0,0.7071065,0,0.7071071]},{"name":"Tree_1_A_Color1 (1)","mesh":13,"translation":[4.39738846,1.3943,10.8517828],"rotation":[-4.0729887E-08,0.8660275,-7.05468963E-08,-0.4999965]},{"name":"Tree_1_B_Color1 (2)","mesh":14,"translation":[6.482482,1.3943,8.060353],"rotation":[2.108369E-08,0.866024435,-7.8684586E-08,0.5000018],"scale":[0.8020104,0.80201,0.8020104]},{"name":"Tree_1_B_Color1 (3)","mesh":14,"translation":[2.74038029,1.3943,7.6098],"rotation":[-5.76008858E-08,0.8660275,-5.760141E-08,-0.499996543],"scale":[0.802010238,0.80201,0.802010238]},{"name":"Tree_1_C_Color1 (1)","mesh":15,"translation":[6.64038,1.3943,3.2898],"rotation":[7.05467755E-08,0.4999991,-4.07300753E-08,0.866026]},{"name":"Tree_1_A_Color1 (1)","mesh":13,"translation":[-22.32962,1.3943,6.6998],"rotation":[4.073032E-08,0.8660244,-7.054664E-08,0.500001848]},{"name":"Tree_1_B_Color1 (2)","mesh":14,"translation":[-20.121809,1.3943,11.0393114],"rotation":[7.868464E-08,-8.940696E-08,-2.10834337E-08,1],"scale":[0.8020102,0.80201,0.8020102]},{"name":"Tree_1_B_Color1 (3)","mesh":14,"translation":[-18.95962,1.3943,8.4198],"rotation":[2.10836859E-08,0.8660244,-7.868457E-08,0.500001848],"scale":[0.802010238,0.80201,0.802010238]},{"name":"Tree_1_C_Color1 (1)","mesh":15,"translation":[-15.8804159,1.3943,13.4056568],"rotation":[8.07634351E-08,-0.130526066,1.06327072E-08,0.9914449]},{"name":"Tree_1_A_Color1 (1)","mesh":13,"translation":[3.80037975,1.3943,-0.370200038],"rotation":[-7.21236049E-08,0.464862257,-3.786784E-08,-0.88538307]},{"name":"Tree_1_B_Color1 (2)","mesh":14,"translation":[3.987527,1.3943,-8.267542],"rotation":[-2.42225973E-08,0.9991952,-7.77756455E-08,-0.04011103],"scale":[0.8020106,0.80201,0.8020106]},{"name":"Tree_1_B_Color1 (3)","mesh":14,"translation":[2.35038,1.3943,-4.7602],"rotation":[-7.946694E-08,0.464862227,-1.79105921E-08,-0.88538307],"scale":[0.802010059,0.80201,0.802010059]},{"name":"Tree_1_B_Color1 (4)","mesh":14,"translation":[6.14038,1.3943,-3.94019985],"rotation":[-7.946694E-08,0.464862227,-1.79105921E-08,-0.88538307],"scale":[0.802010059,0.80201,0.802010059]},{"name":"Tree_1_C_Color1 (1)","mesh":15,"translation":[-1.57961988,1.3943,-9.5402],"rotation":[7.38463868E-09,0.9958826,-8.112493E-08,0.09065306]},{"name":"Tree_1_A_Color1 (1)","mesh":13,"translation":[-18.689621,1.3943,-3.8501997],"rotation":[7.05467755E-08,0.499999,-4.073009E-08,0.866026]},{"name":"Tree_1_B_Color1 (2)","mesh":14,"translation":[-21.8417549,1.3943,-4.3206687],"rotation":[7.868464E-08,-0.499999255,2.10834621E-08,0.8660259],"scale":[0.802010238,0.80201,0.802010238]},{"name":"Tree_1_B_Color1 (3)","mesh":14,"translation":[-18.39962,1.3943,-7.1002],"rotation":[5.76012376E-08,0.499999017,-5.760105E-08,0.866026],"scale":[0.80200994,0.80201,0.80200994]},{"name":"Tree_1_C_Color1 (1)","mesh":15,"translation":[-21.59962,1.3943,1.8098],"rotation":[6.46268745E-08,-0.6087606,4.958985E-08,0.793354]},{"name":"Tree_1_A_Color1 (1)","mesh":13,"translation":[-10.7796192,1.3943,15.1097994],"rotation":[2.48839957E-13,1,-8.146034E-08,3.05473759E-06]},{"name":"Tree_1_B_Color1 (2)","mesh":14,"translation":[-4.8796196,1.3943,14.4598],"rotation":[5.76012447E-08,0.499999136,-5.760106E-08,0.866026],"scale":[0.8020101,0.80201,0.8020101]},{"name":"Tree_1_B_Color1 (3)","mesh":14,"translation":[-7.55962,1.3943,17.2598],"rotation":[-2.10832063E-08,1,-7.86847E-08,3.02493527E-06],"scale":[0.80201,0.80201,0.80201]},{"name":"Tree_1_C_Color1 (1)","mesh":15,"translation":[-1.00961971,1.3943,13.3298],"rotation":[8.076343E-08,0.130525842,-1.0632669E-08,0.991444945]},{"name":"Tree_1_A_Color1","mesh":13,"translation":[-5.93962,1.3943,-13.0802],"rotation":[8.146034E-08,0,0,1]},{"name":"Tree_1_B_Color1","mesh":14,"translation":[-9.39962,1.3943,-13.4902],"rotation":[5.76012376E-08,-0.866024435,5.7601067E-08,0.5000018],"scale":[0.802010238,0.80201,0.802010238]},{"name":"Tree_1_B_Color1 (1)","mesh":14,"translation":[-7.8796196,1.3943,-10.1602],"rotation":[7.86846357E-08,2.98023188E-08,-2.10834461E-08,1],"scale":[0.80201,0.80201,0.80201]},{"name":"Tree_1_C_Color1","mesh":15,"translation":[-14.23962,1.3943,-9.5102005],"rotation":[1.06329221E-08,-0.9914446,8.076341E-08,0.130528882]},{"name":"Trees","children":[14,15,16,17,18,19,20,21,22,23,24,25,26,27,28,29,30,31,32,33,34,35,36,37,38],"translation":[12.4762,1.40942,-6.06835]},{"name":"Estáticos","children":[5,6,7,8,9,10,11,12,13,39],"translation":[-4.79658031,-1.05372,4.19854975]},{"name":"Anfiteatro","children":[0,1,2,3,4,40],"translation":[0.5,1.25,0]},{"name":"LeftEyeAnchor"},{"name":"CenterEyeAnchor","children":[59]},{"name":"RightEyeAnchor"},{"name":"TrackerAnchor"},{"name":"LeftControllerAnchor"},{"name":"LeftHandOnControllerAnchor"},{"name":"LeftControllerInHandAnchor","children":[47]},{"name":"LeftHandAnchor","children":[46,48]},{"name":"RightControllerAnchor"},{"name":"RightHandOnControllerAnchor"},{"name":"RightControllerInHandAnchor","children":[51]},{"name":"RightHandAnchor","children":[50,52]},{"name":"LeftHandAnchorDetached"},{"name":"RightHandAnchorDetached"},{"name":"TrackingSpace","children":[42,43,44,45,49,53,54,55]},{"name":"[BuildingBlock] Camera Rig","children":[56]},{"name":"Directional Light_Orientation","rotation":[0,-1,0,-4.371139E-08],"extensions":{"KHR_lights_punctual":{"light":0}}},{"name":"CenterEyeAnchor_Orientation","rotation":[0,-1,0,-4.371139E-08],"camera":0}],"extensionsRequired":["KHR_texture_transform","KHR_lights_punctual"],"extensionsUsed":["KHR_texture_transform","KHR_lights_punctual"],"buffers":[{"uri":"Anfiteatro.bin","byteLength":471364}],"bufferViews":[{"buffer":0,"byteLength":1536,"target":34963},{"buffer":0,"byteLength":1536,"byteOffset":1536,"target":34963},{"buffer":0,"byteLength":1536,"byteOffset":3072,"target":34963},{"buffer":0,"byteLength":1536,"byteOffset":4608,"target":34963},{"buffer":0,"byteLength":1536,"byteOffset":6144,"target":34963},{"buffer":0,"byteLength":1536,"byteOffset":7680,"target":34963},{"buffer":0,"byteLength":768,"byteOffset":9216,"target":34963},{"buffer":0,"byteLength":3096,"byteOffset":9984,"target":34963},{"buffer":0,"byteLength":3096,"byteOffset":13080,"target":34963},{"buffer":0,"byteLength":408,"byteOffset":16176,"target":34963},{"buffer":0,"byteLength":1728,"byteOffset":16584,"target":34963},{"buffer":0,"byteLength":408,"byteOffset":18312,"target":34963},{"buffer":0,"byteLength":1008,"byteOffset":18720,"target":34963},{"buffer":0,"byteLength":3180,"byteOffset":19728,"target":34963},{"buffer":0,"byteLength":3816,"byteOffset":22908,"target":34963},{"buffer":0,"byteLength":8184,"byteOffset":26724,"target":34963},{"buffer":0,"byteLength":21504,"byteOffset":34908,"byteStride":56,"target":34962},{"buffer":0,"byteLength":21504,"byteOffset":56412,"byteStride":56,"target":34962},{"buffer":0,"byteLength":21504,"byteOffset":77916,"byteStride":56,"target":34962},{"buffer":0,"byteLength":21504,"byteOffset":99420,"byteStride":56,"target":34962},{"buffer":0,"byteLength":21504,"byteOffset":120924,"byteStride":56,"target":34962},{"buffer":0,"byteLength":21504,"byteOffset":142428,"byteStride":56,"target":34962},{"buffer":0,"byteLength":10864,"byteOffset":163932,"byteStride":56,"target":34962},{"buffer":0,"byteLength":43680,"byteOffset":174796,"byteStride":56,"target":34962},{"buffer":0,"byteLength":43680,"byteOffset":218476,"byteStride":56,"target":34962},{"buffer":0,"byteLength":4560,"byteOffset":262156,"byteStride":48,"target":34962},{"buffer":0,"byteLength":17664,"byteOffset":266716,"byteStride":48,"target":34962},{"buffer":0,"byteLength":5856,"byteOffset":284380,"byteStride":48,"target":34962},{"buffer":0,"byteLength":13632,"byteOffset":290236,"byteStride":48,"target":34962},{"buffer":0,"byteLength":36960,"byteOffset":303868,"byteStride":56,"target":34962},{"buffer":0,"byteLength":41496,"byteOffset":340828,"byteStride":56,"target":34962},{"buffer":0,"byteLength":89040,"byteOffset":382324,"byteStride":56,"target":34962}],"accessors":[{"bufferView":26,"componentType":5126,"count":368,"type":"VEC3","max":[0.374984741,1.20294273,0.375],"min":[-0.375015259,0,-0.5606215]},{"bufferView":26,"componentType":5126,"count":368,"type":"VEC3","byteOffset":12},{"bufferView":26,"componentType":5126,"count":368,"type":"VEC4","byteOffset":24},{"bufferView":26,"componentType":5126,"count":368,"type":"VEC2","byteOffset":40},{"bufferView":10,"componentType":5123,"count":864,"type":"SCALAR"},{"bufferView":25,"componentType":5126,"count":95,"type":"VEC3","max":[1.5,0.100000009,1],"min":[-1.5,-4.47034836E-08,-1]},{"bufferView":25,"componentType":5126,"count":95,"type":"VEC3","byteOffset":12},{"bufferView":25,"componentType":5126,"count":95,"type":"VEC4","byteOffset":24},{"bufferView":25,"componentType":5126,"count":95,"type":"VEC2","byteOffset":40},{"bufferView":9,"componentType":5123,"count":204,"type":"SCALAR"},{"bufferView":27,"componentType":5126,"count":122,"type":"VEC3","max":[0.130000859,0.250000149,0.187542856],"min":[-0.129999131,-0.249999732,-0.177457154]},{"bufferView":27,"componentType":5126,"count":122,"type":"VEC3","byteOffset":12},{"bufferView":27,"componentType":5126,"count":122,"type":"VEC4","byteOffset":24},{"bufferView":27,"componentType":5126,"count":122,"type":"VEC2","byteOffset":40},{"bufferView":11,"componentType":5123,"count":204,"type":"SCALAR"},{"bufferView":28,"componentType":5126,"count":284,"type":"VEC3","max":[0.5,1,0.49999994],"min":[-0.5,0,-0.50000006]},{"bufferView":28,"componentType":5126,"count":284,"type":"VEC3","byteOffset":12},{"bufferView":28,"componentType":5126,"count":284,"type":"VEC4","byteOffset":24},{"bufferView":28,"componentType":5126,"count":284,"type":"VEC2","byteOffset":40},{"bufferView":12,"componentType":5123,"count":504,"type":"SCALAR"},{"bufferView":16,"componentType":5126,"count":384,"type":"VEC3","max":[6,1,6],"min":[-6,0,-6]},{"bufferView":16,"componentType":5126,"count":384,"type":"VEC3","byteOffset":12},{"bufferView":16,"componentType":5126,"count":384,"type":"VEC4","byteOffset":24},{"bufferView":16,"componentType":5126,"count":384,"type":"VEC2","byteOffset":40},{"bufferView":16,"componentType":5126,"count":384,"type":"VEC2","byteOffset":48},{"bufferView":0,"componentType":5123,"count":768,"type":"SCALAR"},{"bufferView":17,"componentType":5126,"count":384,"type":"VEC3","max":[8.5,1,8.5],"min":[-8.5,0,-8.5]},{"bufferView":17,"componentType":5126,"count":384,"type":"VEC3","byteOffset":12},{"bufferView":17,"componentType":5126,"count":384,"type":"VEC4","byteOffset":24},{"bufferView":17,"componentType":5126,"count":384,"type":"VEC2","byteOffset":40},{"bufferView":17,"componentType":5126,"count":384,"type":"VEC2","byteOffset":48},{"bufferView":1,"componentType":5123,"count":768,"type":"SCALAR"},{"bufferView":18,"componentType":5126,"count":384,"type":"VEC3","max":[11,1,11],"min":[-11,0,-11]},{"bufferView":18,"componentType":5126,"count":384,"type":"VEC3","byteOffset":12},{"bufferView":18,"componentType":5126,"count":384,"type":"VEC4","byteOffset":24},{"bufferView":18,"componentType":5126,"count":384,"type":"VEC2","byteOffset":40},{"bufferView":18,"componentType":5126,"count":384,"type":"VEC2","byteOffset":48},{"bufferView":2,"componentType":5123,"count":768,"type":"SCALAR"},{"bufferView":19,"componentType":5126,"count":384,"type":"VEC3","max":[8.5,0.05,8.5],"min":[-8.5,-0.05,-8.5]},{"bufferView":19,"componentType":5126,"count":384,"type":"VEC3","byteOffset":12},{"bufferView":19,"componentType":5126,"count":384,"type":"VEC4","byteOffset":24},{"bufferView":19,"componentType":5126,"count":384,"type":"VEC2","byteOffset":40},{"bufferView":19,"componentType":5126,"count":384,"type":"VEC2","byteOffset":48},{"bufferView":3,"componentType":5123,"count":768,"type":"SCALAR"},{"bufferView":20,"componentType":5126,"count":384,"type":"VEC3","max":[11,0.05,11],"min":[-11,-0.05,-11]},{"bufferView":20,"componentType":5126,"count":384,"type":"VEC3","byteOffset":12},{"bufferView":20,"componentType":5126,"count":384,"type":"VEC4","byteOffset":24},{"bufferView":20,"componentType":5126,"count":384,"type":"VEC2","byteOffset":40},{"bufferView":20,"componentType":5126,"count":384,"type":"VEC2","byteOffset":48},{"bufferView":4,"componentType":5123,"count":768,"type":"SCALAR"},{"bufferView":21,"componentType":5126,"count":384,"type":"VEC3","max":[17.5,0.05,17.5],"min":[-17.5,-0.05,-17.5]},{"bufferView":21,"componentType":5126,"count":384,"type":"VEC3","byteOffset":12},{"bufferView":21,"componentType":5126,"count":384,"type":"VEC4","byteOffset":24},{"bufferView":21,"componentType":5126,"count":384,"type":"VEC2","byteOffset":40},{"bufferView":21,"componentType":5126,"count":384,"type":"VEC2","byteOffset":48},{"bufferView":5,"componentType":5123,"count":768,"type":"SCALAR"},{"bufferView":22,"componentType":5126,"count":194,"type":"VEC3","max":[5.99999428,0.05,5.99999428],"min":[-5.99999428,-0.05,-5.99999428]},{"bufferView":22,"componentType":5126,"count":194,"type":"VEC3","byteOffset":12},{"bufferView":22,"componentType":5126,"count":194,"type":"VEC4","byteOffset":24},{"bufferView":22,"componentType":5126,"count":194,"type":"VEC2","byteOffset":40},{"bufferView":22,"componentType":5126,"count":194,"type":"VEC2","byteOffset":48},{"bufferView":6,"componentType":5123,"count":384,"type":"SCALAR"},{"bufferView":23,"componentType":5126,"count":780,"type":"VEC3","max":[7.95547867,5.31604958,0.18916297],"min":[-7.95547867,-2.31605,-0.18916297]},{"bufferView":23,"componentType":5126,"count":780,"type":"VEC3","byteOffset":12},{"bufferView":23,"componentType":5126,"count":780,"type":"VEC4","byteOffset":24},{"bufferView":23,"componentType":5126,"count":780,"type":"VEC2","byteOffset":40},{"bufferView":23,"componentType":5126,"count":780,"type":"VEC2","byteOffset":48},{"bufferView":7,"componentType":5123,"count":1548,"type":"SCALAR"},{"bufferView":24,"componentType":5126,"count":780,"type":"VEC3","max":[7.95547867,5.31604958,0.18916297],"min":[-7.95547867,-2.31605,-0.18916297]},{"bufferView":24,"componentType":5126,"count":780,"type":"VEC3","byteOffset":12},{"bufferView":24,"componentType":5126,"count":780,"type":"VEC4","byteOffset":24},{"bufferView":24,"componentType":5126,"count":780,"type":"VEC2","byteOffset":40},{"bufferView":24,"componentType":5126,"count":780,"type":"VEC2","byteOffset":48},{"bufferView":8,"componentType":5123,"count":1548,"type":"SCALAR"},{"bufferView":29,"componentType":5126,"count":660,"type":"VEC3","max":[1.24640214,3.89938116,1.62556338],"min":[-1.93459094,-0.2613181,-1.62556338]},{"bufferView":29,"componentType":5126,"count":660,"type":"VEC3","byteOffset":12},{"bufferView":29,"componentType":5126,"count":660,"type":"VEC4","byteOffset":24},{"bufferView":29,"componentType":5126,"count":660,"type":"VEC2","byteOffset":40},{"bufferView":29,"componentType":5126,"count":660,"type":"VEC2","byteOffset":48},{"bufferView":13,"componentType":5123,"count":1590,"type":"SCALAR"},{"bufferView":30,"componentType":5126,"count":741,"type":"VEC3","max":[2.21730423,4.588587,1.72274363],"min":[-1.78952169,-0.3410368,-1.72274363]},{"bufferView":30,"componentType":5126,"count":741,"type":"VEC3","byteOffset":12},{"bufferView":30,"componentType":5126,"count":741,"type":"VEC4","byteOffset":24},{"bufferView":30,"componentType":5126,"count":741,"type":"VEC2","byteOffset":40},{"bufferView":30,"componentType":5126,"count":741,"type":"VEC2","byteOffset":48},{"bufferView":14,"componentType":5123,"count":1908,"type":"SCALAR"},{"bufferView":31,"componentType":5126,"count":1590,"type":"VEC3","max":[3.94549084,7.421931,2.876676],"min":[-2.74580479,-0.392319679,-2.876676]},{"bufferView":31,"componentType":5126,"count":1590,"type":"VEC3","byteOffset":12},{"bufferView":31,"componentType":5126,"count":1590,"type":"VEC4","byteOffset":24},{"bufferView":31,"componentType":5126,"count":1590,"type":"VEC2","byteOffset":40},{"bufferView":31,"componentType":5126,"count":1590,"type":"VEC2","byteOffset":48},{"bufferView":15,"componentType":5123,"count":4092,"type":"SCALAR"}],"cameras":[{"type":"perspective","perspective":{"yfov":1.57079637,"zfar":1000,"znear":0.1}}],"images":[{"name":"furniturebits_texture.png","uri":"furniturebits_texture.png","mimeType":"image/png"},{"name":"plaster_wall_02_normal_gl_1k.png","uri":"plaster_wall_02_normal_gl_1k.png","mimeType":"image/png"},{"name":"plaster_wall_02_basecolor_1k.png","uri":"plaster_wall_02_basecolor_1k.png","mimeType":"image/png"},{"name":"wood_planks_03_normal_gl_1k.png","uri":"wood_planks_03_normal_gl_1k.png","mimeType":"image/png"},{"name":"wood_planks_03_color_1k.jpg","uri":"wood_planks_03_color_1k.jpg","mimeType":"image/jpeg"},{"name":"wood_planks_03_color_1kORM.jpg","uri":"wood_planks_03_color_1kORM.jpg","mimeType":"image/jpeg"},{"name":"grass_01_normal_gl_1k.png","uri":"grass_01_normal_gl_1k.png","mimeType":"image/png"},{"name":"grass_01_color_1k.jpg","uri":"grass_01_color_1k.jpg","mimeType":"image/jpeg"},{"name":"grass_01_ambient_occlusion_1k.jpg","uri":"grass_01_ambient_occlusion_1k.jpg","mimeType":"image/jpeg"},{"name":"forest_texture.png","uri":"forest_texture.png","mimeType":"image/png"}],"materials":[{"name":"furniture_texture","pbrMetallicRoughness":{"metallicFactor":0,"roughnessFactor":0.5,"baseColorTexture":{"index":0}}},{"name":"furniture_texture","pbrMetallicRoughness":{"metallicFactor":0,"roughnessFactor":0.5,"baseColorTexture":{"index":0}}},{"name":"furniture_texture","pbrMetallicRoughness":{"metallicFactor":0,"roughnessFactor":0.5,"baseColorTexture":{"index":0}}},{"name":"furniture_texture","pbrMetallicRoughness":{"metallicFactor":0,"roughnessFactor":0.5,"baseColorTexture":{"index":0}}},{"name":"Plaster Wall","pbrMetallicRoughness":{"metallicFactor":0,"roughnessFactor":0.567999959,"baseColorTexture":{"index":2,"extensions":{"KHR_texture_transform":{"offset":[0,0.8],"scale":[0.2,0.2]}}}},"normalTexture":{"index":1,"extensions":{"KHR_texture_transform":{"offset":[0,0.8],"scale":[0.2,0.2]}},"scale":0.2}},{"name":"Wood Floor","pbrMetallicRoughness":{"metallicFactor":0,"baseColorTexture":{"index":4},"metallicRoughnessTexture":{"index":5}},"normalTexture":{"index":3,"scale":2}},{"name":"Grass","pbrMetallicRoughness":{"metallicFactor":0,"baseColorTexture":{"index":7,"extensions":{"KHR_texture_transform":{"offset":[0,0.5],"scale":[0.5,0.5]}}},"metallicRoughnessTexture":{"index":8,"extensions":{"KHR_texture_transform":{"offset":[0,0.5],"scale":[0.5,0.5]}}}},"normalTexture":{"index":6,"extensions":{"KHR_texture_transform":{"offset":[0,0.5],"scale":[0.5,0.5]}}},"occlusionTexture":{"index":8,"extensions":{"KHR_texture_transform":{"offset":[0,0.5],"scale":[0.5,0.5]}}}},{"name":"Walls","pbrMetallicRoughness":{"metallicFactor":0,"roughnessFactor":0.299000025}},{"name":"forest","pbrMetallicRoughness":{"metallicFactor":0,"roughnessFactor":0.6,"baseColorTexture":{"index":9}}}],"meshes":[{"name":"chair_C","primitives":[{"attributes":{"POSITION":0,"NORMAL":1,"TANGENT":2,"TEXCOORD_0":3},"indices":4,"material":0}]},{"name":"rug_rectangle_stripes_A","primitives":[{"attributes":{"POSITION":5,"NORMAL":6,"TANGENT":7,"TEXCOORD_0":8},"indices":9,"material":1}]},{"name":"book_single","primitives":[{"attributes":{"POSITION":10,"NORMAL":11,"TANGENT":12,"TEXCOORD_0":13},"indices":14,"material":2}]},{"name":"table_small","primitives":[{"attributes":{"POSITION":15,"NORMAL":16,"TANGENT":17,"TEXCOORD_0":18},"indices":19,"material":3}]},{"name":"pb_Mesh-24608","primitives":[{"attributes":{"POSITION":20,"NORMAL":21,"TANGENT":22,"TEXCOORD_0":23,"TEXCOORD_1":24},"indices":25,"material":4}]},{"name":"pb_Mesh-27058","primitives":[{"attributes":{"POSITION":26,"NORMAL":27,"TANGENT":28,"TEXCOORD_0":29,"TEXCOORD_1":30},"indices":31,"material":4}]},{"name":"pb_Mesh-27678","primitives":[{"attributes":{"POSITION":32,"NORMAL":33,"TANGENT":34,"TEXCOORD_0":35,"TEXCOORD_1":36},"indices":37,"material":4}]},{"name":"pb_Mesh-4256","primitives":[{"attributes":{"POSITION":38,"NORMAL":39,"TANGENT":40,"TEXCOORD_0":41,"TEXCOORD_1":42},"indices":43,"material":5}]},{"name":"pb_Mesh-5654","primitives":[{"attributes":{"POSITION":44,"NORMAL":45,"TANGENT":46,"TEXCOORD_0":47,"TEXCOORD_1":48},"indices":49,"material":5}]},{"name":"pb_Mesh-6344","primitives":[{"attributes":{"POSITION":50,"NORMAL":51,"TANGENT":52,"TEXCOORD_0":53,"TEXCOORD_1":54},"indices":55,"material":6}]},{"name":"pb_Mesh-7660","primitives":[{"attributes":{"POSITION":56,"NORMAL":57,"TANGENT":58,"TEXCOORD_0":59,"TEXCOORD_1":60},"indices":61,"material":5}]},{"name":"pb_Mesh-53236","primitives":[{"attributes":{"POSITION":62,"NORMAL":63,"TANGENT":64,"TEXCOORD_0":65,"TEXCOORD_1":66},"indices":67,"material":7}]},{"name":"pb_Mesh-54670","primitives":[{"attributes":{"POSITION":68,"NORMAL":69,"TANGENT":70,"TEXCOORD_0":71,"TEXCOORD_1":72},"indices":73,"material":7}]},{"name":"Tree_1_A_Color1","primitives":[{"attributes":{"POSITION":74,"NORMAL":75,"TANGENT":76,"TEXCOORD_0":77,"TEXCOORD_1":78},"indices":79,"material":8}]},{"name":"Tree_1_B_Color1","primitives":[{"attributes":{"POSITION":80,"NORMAL":81,"TANGENT":82,"TEXCOORD_0":83,"TEXCOORD_1":84},"indices":85,"material":8}]},{"name":"Tree_1_C_Color1","primitives":[{"attributes":{"POSITION":86,"NORMAL":87,"TANGENT":88,"TEXCOORD_0":89,"TEXCOORD_1":90},"indices":91,"material":8}]}],"scene":0,"scenes":[{"name":"Anfiteatro","nodes":[41,57]}],"textures":[{"source":0},{"source":1},{"source":2},{"source":3},{"source":4},{"source":5},{"source":6},{"source":7},{"source":8},{"source":9}],"extensions":{"KHR_lights_punctual":{"lights":[{"type":"directional","name":"Directional Light","color":[1,0.904661357,0.6724432]}]}}}